<mxfile host="app.diagrams.net" modified="2024-03-08T10:11:07.908Z" agent="Mozilla/5.0 (Windows NT 10.0; Win64; x64) AppleWebKit/537.36 (KHTML, like Gecko) Chrome/122.0.0.0 Safari/537.36" version="24.0.2" etag="gscTt4P65RqptM8_s0x-" type="github">
  <diagram name="Page-1" id="gFc1Z7AAa83xT5eZbrXa">
    <mxGraphModel>
      <root>
        <mxCell id="0" />
        <mxCell id="1" parent="0" />
      </root>
    </mxGraphModel>
  </diagram>
</mxfile>
